<svg id="Livello_1" data-name="Livello 1" xmlns="http://www.w3.org/2000/svg" viewBox="0 0 1600 900"><defs><style>.cls-1{fill:#fcfcfc;}.cls-2{fill:#dcdcdc;}.cls-3{fill:#a2a2a2;}.cls-4{fill:#d9d9d9;}.cls-5{fill:#b0b0b0;}.cls-6{fill:#d1d1d1;}.cls-7{fill:#b6b6b6;}.cls-8{fill:#acacac;}.cls-9{fill:#aaa;}.cls-10{fill:#9b9b9b;}.cls-11{fill:#c8c8c8;}.cls-12{fill:#ccc;}.cls-13{fill:#bababa;}.cls-14{fill:#c3c3c3;}.cls-15{fill:#0f0f0f;}.cls-16{fill:#c6c6c6;}.cls-17{fill:#b5b5b5;}.cls-18{fill:#151515;}.cls-19{fill:#b3b3b3;}.cls-20{fill:#bdbdbd;}.cls-21{fill:#171717;}.cls-22{fill:#6c6c6c;}.cls-23{fill:#252525;}.cls-24{fill:#4a4a4a;}.cls-25{fill:#9d9d9d;}.cls-26{fill:#262626;}.cls-27{fill:#373737;}.cls-28{fill:#878787;}.cls-29{fill:#3a3a3a;}.cls-30{fill:#5c5c5c;}.cls-31{fill:#020202;}.cls-32{fill:#cacaca;}.cls-33{fill:#cbcbcb;}.cls-34{fill:#b8b8b8;}.cls-35{fill:#101010;}.cls-36{fill:#bfbfbf;}.cls-37{fill:#c5c5c5;}.cls-38{fill:#5b5b5b;}.cls-39{fill:#131313;}.cls-40{fill:#161616;}.cls-41{fill:#202020;}.cls-42{fill:#8b8b8b;}.cls-43{fill:#1d1d1d;}.cls-44{fill:#838383;}.cls-45{fill:#9f9f9f;}.cls-46{fill:#676767;}.cls-47{fill:#3f3f3f;}.cls-48{fill:#4e4e4e;}.cls-49{fill:#242424;}.cls-50{fill:#6d6d6d;}.cls-51{fill:#5f5f5f;}.cls-52{fill:#555;}.cls-53{fill:#717171;}.cls-54{fill:#2d2d2d;}.cls-55{fill:#404040;}.cls-56{fill:#4c4c4c;}.cls-57{fill:#606060;}.cls-58{fill:#8c8c8c;}.cls-59{fill:#767676;}.cls-60{fill:#121212;}.cls-61{fill:#111;}.cls-62{fill:#232323;}.cls-63{fill:#424242;}.cls-64{fill:#212121;}.cls-65{fill:#6a6a6a;}.cls-66{fill:#515151;}.cls-67{fill:#535353;}.cls-68{fill:#9e9e9e;}.cls-69{fill:#444;}.cls-70{fill:#8e8e8e;}.cls-71{fill:#343434;}.cls-72{fill:#7c7c7c;}.cls-73{fill:#2f2f2f;}.cls-74{fill:#888;}.cls-75{fill:#727272;}.cls-76{fill:#616161;}</style></defs><path class="cls-1" d="M590.47,1882.7q-397.71,0-795.41.1c-3.75,0-4.59-.85-4.59-4.6q.15-445.4,0-890.81c0-3.75.84-4.59,4.59-4.59q795.41.13,1590.82,0c3.74,0,4.59.84,4.59,4.59q-.15,445.41,0,890.81c0,3.75-.84,4.6-4.59,4.6Q988.17,1882.64,590.47,1882.7Z" transform="translate(209.53 -982.8)"/><path d="M801.85,1502.31c-4.36,92-47.32,168.22-135.5,216.21-49,26.67-102.11,35.23-157.33,26.49-81.46-12.89-144.67-54.48-188.57-124.24-30.75-48.87-44.59-102.78-38.39-160.28,10.27-95.18,59.07-164.45,145.31-206.57a232.27,232.27,0,0,1,92.91-23.26c86.09-3.61,158.24,27.11,215.37,91.21C779.34,1370.89,800.48,1429.31,801.85,1502.31Z" transform="translate(209.53 -982.8)"/><path class="cls-2" d="M664.45,1702.66l-5.7,3.23c-1.09.46-2.34-.22-3.39.48-6.14,4.11-13.67,4.51-20.32,7.51a29.54,29.54,0,0,1-13.32,2.56c-5.94-.32-11.76,1.64-17.71,2.23s-11.73,2.19-17.58,3.39c-4.54.93-9.37,1.4-13.53,3.15a46,46,0,0,1-20.64,3.67c-7.38-.32-14.93.17-22.4.12a57.85,57.85,0,0,0-7.35.67c-5,.58-10-.13-13.6-4.13-4.59-5.16-10.75-5.82-15.87-1-1.53,1.44-2.84,2.19-4.8,1.31-18.11-3.49-35.09-10.24-51.55-18.31a249.93,249.93,0,0,1-89.19-73c-.7-.92-1.29-1.92-1.93-2.89,1.38-1.91,2.85-3.42,2.19-6.44-.57-2.58.33-5.58.36-8.41a7.14,7.14,0,0,1,4.13-6.88c3.49-1.65,4.61-4.39,4.83-8,.4-6.89.51-6.86,7.39-9.12,3.48-1.15,7-2.29,9.52-5.19a6.48,6.48,0,0,1,5.4-2.13c18.64,1.1,37.1-2.35,55.7-2.14,9.52.1,19.42-1.52,27.23,6.15a3.1,3.1,0,0,1,1.22,1c1,2.74,2.56,5,5.46,6.13a5.32,5.32,0,0,1,3.28,2.91c1.58,4.26,5,4.85,8.87,4.84,12.33,0,24.65-.14,37,.07,3.06,0,7.89-1.05,7.67,3.85-.19,4.23-4.73,3.88-8,3.93-6,.08-12-.41-17,3.95-2.12,1.82-5.52.45-8.15,2.09,1.54,1.16,2.83.35,4.09.27,5.75-.38,11.24-.44,17.15.94,9.68,2.24,19.86,1,29.84.57,2.13-.08,3.45-1.64,4.72-3.31,3.38-4.41,8.71-4.43,12,0a7.82,7.82,0,0,0,6.75,3.51c5.16,0,10.33.42,15.45-.61a8.82,8.82,0,0,1,3-.24c10.46,1.64,20.91-.07,31.36,0a15,15,0,0,1,3.48.31c2.75.65,4.52,2.35,4.45,5.21s-1.88,4.53-4.66,5-5.66.12-8.46.58c-1.3.22-2.94.33-3.25,1.85-.38,1.86,1.31,2.54,2.68,3.08,3.52,1.4,7.24.82,10.88.85,4.75,0,9.54-.27,11.48,5.54a2,2,0,0,0,1.43,1.32c6.47.7,12.65,4.51,19.36,2.3,4.11-1.35,8.2-1.1,12.35-.91a6.57,6.57,0,0,1,5.27,3.37c1.87,2.87,4.15,3.19,7.31,2.33,6-1.65,9.11.07,10.17,6.06,1.12,6.36,5.13,10.3,9.87,13.81,2.27,1.68,4.39,3.18,3,6.45l-15.49,12.35c-2.67,1.3-6.13,1.35-7.48,4.73l-3.2,2.12c-2.73.79-5.14,2.45-8,2.82C665.86,1698.85,665.39,1701,664.45,1702.66Z" transform="translate(209.53 -982.8)"/><path class="cls-3" d="M627.45,1262.84c21.8,7.9,41.47,19.62,59.9,33.51a254.39,254.39,0,0,1,53.91,55.8,18.18,18.18,0,0,1,1.32,2.65c-1,5.53-3.69,7-8.69,4.85-5.52-2.39-11.15-4.37-17.27-4.45a9.85,9.85,0,0,1-3.91-.7c-15-6.78-31.24-7.66-47.23-9.11-11.93-1.09-23.62-3.75-35.56-4.59-1.65-.12-3.3-.39-5-.48-34.23-1.67-68.47-2.59-102.75-2-7.14.11-14.22.09-21.36,1.45-6.11,1.16-12.54.08-18.86.28-12.8.42-25.61.71-38.41,1.27a21.55,21.55,0,0,0-4.48.28c-13.73,3.59-28,4.23-41.92,5.84-16.29,1.88-32,6-48.09,8.53-3.5.56-7,.07-10.46-.14a4.56,4.56,0,0,1-4.22-3c11.11-18.12,25.11-33.79,41-47.81,12.84-11.33,26.42-21.68,41.87-29.33,2.73.59,1.37,2.22.86,4,4.26-2.25,9-1.79,13.17-2.84,16.14-4.07,32.77,0,48.55-3,20.93-4,41.79-.72,62.55-2.61,24.38-2.21,48.77-1.61,73.17-1.92,4-.06,7.6-1,9.58-5.07C625.57,1263.32,626.23,1262.54,627.45,1262.84Z" transform="translate(209.53 -982.8)"/><path class="cls-4" d="M702.41,1676.53c-1.12-3-3.1-3.15-5.93-1.22,1.48-2.46.25-3.58-1.1-5-4-4.14-8.55-7.76-8.66-14.51-.06-3.31-3.23-4.86-6.34-3.27-5,2.55-8.9,3.8-10.84-3.48-.7-2.62-8.68-3.73-13-1.53s-8,2.48-12.16,0c-2.47-1.47-5.56-.73-8.37-.75-3,0-5.3-.67-5.62-4.2-.28-3-2.31-3.78-4.92-3.78a22.15,22.15,0,0,0-4,0c-8.1,1.47-14.65-1.7-21-7,5.2-2,9.9-4.85,15.65-4.1a11.35,11.35,0,0,0,3.48-.22c1.53-.29,3-1,3-2.8s-1.56-2.63-3.09-2.68a78.1,78.1,0,0,0-11.95.11,81,81,0,0,1-17.4,0c-7.94-.71-15.89,1.16-23.89.68-3.72-.23-7.49.32-8.33-4.87-.27-1.65-2-2.06-3.62-2-1.88,0-3.34.84-3.67,2.74-.64,3.72-3.22,4.14-6.29,4.13-9.33,0-18.66,0-28,0-1.32,0-2.87.13-3.92-.48-6.28-3.69-12.54-1.62-18.8-.17-2,.46-3.95,1.06-5.76-.24-1.37-1-1.48-2.54-1.2-4.08.42-2.23,2.08-2.89,4.06-2.92,4.65-.07,9.25.3,12.64-4.2,1.26-1.68,4.1-.76,6.24-.88,4.72-.27,9.58.76,14.64-1.29-1.73-2.35-3.85-1.66-5.6-1.67q-20.75-.1-41.48,0c-3.68,0-6.7-.4-7-5a2.75,2.75,0,0,0-2.55-2.7c-5.74-.32-5.29-4.4-5.1-8.42,2.48-3.94,7.45-1.11,10.85-3.36-3.93-3.16-5.08-2.76-10.85,3.36-3.22.3-6-.06-8-2.93-1.52-2.15-4.08-1.93-6.41-1.94-9.15,0-18.48-1.15-27.39.27-13.59,2.17-27.13,1.35-40.69,1.77-1.52,0-3.42.08-4.08,1.42-2.28,4.67-6.95,5-10.95,5.9-4.22,1-5.94,3-5.57,7.22.41,4.74.14,9.12-6.11,10a3.15,3.15,0,0,0-2.57,3.32c.4,4.22-3,9.19,2.66,12.5,1.55.91,1.56,3.49.47,5-1.27,1.81-3.29,1-5,.28-1.17-.52-1.8-2-3.38-1.85-6-7-10.56-14.91-15.15-22.81a8.2,8.2,0,0,0-1-4.8c-3.81-6.08-2.83-12.35,2.91-16.53a88.17,88.17,0,0,1,16.68-10,5.07,5.07,0,0,1,1.84-.73c7.55,0,14.75-2.1,22.1-3.37,9.15-1.59,18.48-1.79,27.61-3.65a32.44,32.44,0,0,1,10.94-.25,46,46,0,0,0,13.91-.18c10.42-1.69,20.93-.72,31.4-1,10.9-.34,21.76.8,32.63-2.6,11.63-3.64,23.81-.25,35.75-.15,12.3.1,24.6,0,36.87-.7,7.66-.45,15.27-.87,22.9.1a46.81,46.81,0,0,0,7.48.36c13.62-.43,27.2,1.44,40.86.15,9.73-.92,19.56,1.61,29.35-.08a1.34,1.34,0,0,1,.5,0c11.28,2.81,22.38-.89,33.57-.84,15.59.06,31.26-.18,46.52,4,2.84.79,4.79,2.41,5.36,5.27a24.48,24.48,0,0,0,3.77,8.56c2.27,3.54,3.24,7.61.79,11.74a32.47,32.47,0,0,0-4.38,12.65c-.44,3.57-2.55,5.67-6.09,6.29-4,.7-8.2,1.36-8.68,6.57-.39,4.17,3,7.54,8.78,9.24a10.9,10.9,0,0,1,1.79.86c-6.13,11.29-14.82,20.6-23.54,29.83C715.25,1665.66,709.58,1671.94,702.41,1676.53Z" transform="translate(209.53 -982.8)"/><path class="cls-5" d="M735.47,1393.71c-5.6,2.53-10.72,6.22-17,7-7.86-2.3-16-2.85-24.09-3.39-4.72-.31-8.85-.76-11.37-5.54-1.31-2.5-4.18-2.85-6.66-2.44-7.16,1.17-14.26.3-21.39-.05-3.7-.19-7.29-.32-10.54-2.42a8,8,0,0,0-5.32-.88c-3.82.39-7.66.13-11.49.25-4.41.14-8.09-.56-10.36-5.14-1.27-2.56-4.18-4-7-4.32-6.1-.76-12.3-1.52-18.15,1.31-2.36,1.14-4.87.86-7.33,1.16-10.88,1.35-21.42-2-32.21-2.19-5.63-.09-10.64,2.59-16.23,2.21-9.24-.62-18.43-.85-27.71.75-7.54,1.29-15.26-.76-22.9-.69-13.08.14-26,3.47-39.41,1.45,2.19,5.69,1.27,7.34-4.13,8.41-5.62,1.1-10.91,1.14-16.6-1s-12.21-2.35-17,3.29c-1.76,2.08-4.13,2.58-6.73,2.67a45.5,45.5,0,0,0-26.77,9.23c-2.41,1.84-5.31,1.68-8.15,1.76-1.61,0-3.77-.43-4.33,1.54-.49,1.73,1.73,1.58,2.7,2.33.81.62,1.61,1.3,1.34,2.43-.32,1.4-1.51,1.66-2.72,1.72-3.16.15-6.33,0-9.49.12-2.85.13-5.69.32-7.83,2.61a6.48,6.48,0,0,1-4,.84c-2.83.29-5.8-.54-8.54.79-.79.61-2.57.31-2.58,1.12-.07,4.81-5.27,6.63-6.1,11-.43,2.27-2.67,3.25-4.7,4-2.61,1-5.32,1.82-8,2.72a7.54,7.54,0,0,0-4.91,4.42c-1.69,3.85-5,6.1-9.25,6.85a92.54,92.54,0,0,1,4.9-24.08c2.94-6.26,9.37-9,13.82-13.85,5.59-6,13.65-8.76,20.21-13.59,1.76-1.3,3.6-2.4,4.51-4.51,3.22-7.5,9.63-12.18,15.45-17.36,1.38-1.22,3.34-1.39,5-2,7.82-2.95,15.26-7.19,24-6.84,10.85-6.68,23.36-5.18,35.17-7,4.8-.73,9.61-1.36,14.09-3.06a33.15,33.15,0,0,1,13.68-2.14c28.47,1.39,56.79-3.18,85.26-2,7.15.28,14.32,0,21.48,0,26.44.26,52.79,2.74,79.27,2.27a92.35,92.35,0,0,1,31,4.78c4.89,1.63,10.25,2,15.23,2.22,10.45.48,19.65,4.67,29.28,7.64,3,.93,6.08,1.62,9.08,2.62,7.86,2.61,12.24,8.16,14.44,15.67C735.07,1388.81,739.44,1390.74,735.47,1393.71Z" transform="translate(209.53 -982.8)"/><path class="cls-6" d="M744.56,1629.73c-2.34,1.92-5.51,3.46-7.67,1.27-3.41-3.46-6.66-7.53-6.27-13,.24-3.5,2.73-6,5.67-6.11,8-.32,10.89-4.67,11.32-11.86a6,6,0,0,1,1.1-2.77c3.71-5.73,4.78-11.26-1.05-16.36a.73.73,0,0,1-.23-.44c-.81-13.43-12.34-11.48-20-12.25-14.47-1.48-29.17-2-43.79-.43a11.61,11.61,0,0,0-4.81,1.11c-2.83,1.67-5.68,1.53-8.63.33-4.14-1.67-8.4-1.63-12.77-1a32.8,32.8,0,0,1-8.94.41c-8.64-1.13-17.21-.42-25.86-.15-12.77.41-25.6-.35-38.37-1.15-7.16-.44-14.25-.83-21.39,0a78.48,78.48,0,0,1-8,.41c-17.59.33-35.18.65-52.76-.9a34.69,34.69,0,0,0-17.53,2.94c-2.33,1.06-4.87,1-7.38,1-11,0-22,.12-33,0a128.48,128.48,0,0,0-22.85,1.74,24.68,24.68,0,0,1-7.95-.18c-5.14-.83-10.25-.94-15.31.7-5.58,1.82-11.53,1.27-17.23,1.89-8.58.93-16.71,4.22-25.47,4-6.46-.17-11.49,3.93-16.65,7.21-4.34,2.75-8.65,5.56-9.75,11.23-.26,1.28-1.16,2.44-.18,3.73,1.26,1.65,2.26-1,3.61-.19-.66,2.64,0,5.62-2.08,8a168.53,168.53,0,0,1-16-31.92c-.91-4,.48-6,4-8.69,7.15-5.48,15.1-7,23.42-8.26a154.24,154.24,0,0,0,26.65-6.12,20.54,20.54,0,0,1,13.75.63,3.41,3.41,0,0,1,1.21.85,3.34,3.34,0,0,1,.62,2.79c0,.17-.62.79.22.67.23,0,.44-.46.7-.71,3.22-2.81,7.37-3,11.17-3.46,9.72-1.13,19.27-3.93,29.2-3.35,13.11,3,26.13,1.26,39.2-.59,4.24-.59,8.56-1.26,12.91-.63a8,8,0,0,0,3.48,0c12.61-4,25.65-2,38.49-2.68,3.6-.19,6.94-2.66,10.68-1.13a22.8,22.8,0,0,0,14,4.14c4.64-.21,9.31,0,14,0a14.58,14.58,0,0,0,4-.13c12.9-3.65,25.82.26,38.71-.24,2.54-.1,3.36,2.65,5.58,2.89,3.44,3.18,6.89-.06,10.34,0,1.8.52,2.08,2.57,3.53,3.47,3.05,1.76,6.22.24,9.3.3,10.81.22,21.32,3.84,32.23,2.71,14-1.45,28.33.23,42-4.55a13.57,13.57,0,0,1,4.46-.41c13-.06,25.95-.26,38.92.07,7.23.18,13.33,2.89,16.45,10.12a9.73,9.73,0,0,0,3.69,4c3.72,2.61,4.92,5.65,3.1,9.87-1,2.4-1.06,4.93-1.95,7.28-5.07,13.55-12.43,25.93-19.72,38.34C747.53,1626,744.69,1626.89,744.56,1629.73Z" transform="translate(209.53 -982.8)"/><path class="cls-7" d="M345.54,1413.71c3.64-3,8-1.62,12-1.89a24.54,24.54,0,0,0,6.51-.75,40.36,40.36,0,0,1-5.84-.48c-3-.67-3.5-3-1.46-4.72,2.55-2.14,5.32-4.79,9.36-3.45a8.8,8.8,0,0,0,2.47.3c4.8.1,5.71-1.2,3.63-7.09,4.93,3.38,8.59.84,12.59-.5,5.62-1.88,11.21-4.21,17.43-3.44a5.45,5.45,0,0,0,5.65-3.41c1.35-2.93,3.65-3.62,6.52-3.47,5.39.29,10.72-.56,16,2.3,4.17,2.24,9.12,0,13.66-.94a1.47,1.47,0,0,0,1.24-1.85c-.33-1.12-1.49-1.09-2.41-1.44-1.63-.62-4.94,1.16-4.7-1.62.22-2.54,3.56-2.38,5.89-2.43,2,0,4,0,6,0,8.6-.34,17.16.48,25.79-1.62,5.67-1.37,11.89-.51,17.89.12,9.11,1,18.26,1.31,27-2.34a4,4,0,0,1,3.36-.16c7.08,3.13,13.85,1.51,21.21.23a48.17,48.17,0,0,1,21,.66,45.28,45.28,0,0,0,25-.25c9.27-2.77,18.25-2.79,27,1.79.3.15.69.31.81.56,4.8,10.78,13.67,5.12,21,5,2.3-.06,4.14-.53,5.7,1.53a5,5,0,0,0,3.8,2.19c6.81,0,13.56,1.81,20.36.86a75.7,75.7,0,0,1,11.45-.47c2.8,0,5.3.26,4.94,4.4-.23,2.77,2.47,3.47,4.64,3.4,7.72-.24,15.19,1.84,22.83,2.14,2.73.1,4.56.88,4.53,4-.53.39-1.06,1.11-1.6,1.12-6.13.08-10.21,4.69-15.4,6.81a4.43,4.43,0,0,1-1.05-.87c-2.39-3.62-4.36-4.24-7.53-1.68a9.1,9.1,0,0,1-6.9,2.12c-2.63-.84-2.28-3.46-2.85-5.33a5.51,5.51,0,0,0-3.34-3.88c-1.08-1-2.49-.75-3.77-1-4.87-2.1-9,.68-13.39,2a7,7,0,0,1-4-.11c-5.48-3-11.39-3-17.41-2.77-10.31.37-20.63.12-30.94.14-11.82,0-23.65.41-35.44-.08-21.48-.88-42.75,3.31-64.21,2.17a5.23,5.23,0,0,0-2.94.39c-7,4.45-14.82,2.28-22.24,2.37-9.09.11-18.2-.95-27,2.51-2.67-2.91-5.83-3.46-9.63-2.47-4.85,1.26-9.95.22-14.87,1.14a76.73,76.73,0,0,1-18.67,0c-6.43-.8-6.64-.76-7.71,5.3a170.44,170.44,0,0,1-18.93,52.7c-.93,1.69-1.71,3.49-2.48,5.27-.61,1.39-1.72,3-3.72,2.24-1.71-.65-1.56-2.49-1.44-3.78.47-5,1.42-10,2-15.08,1.14-9.28,2.14-18.5,1.67-27.88-.35-7.06-.52-7.41-7.29-5.82-9.37.58-18.64-1.55-28-1C348,1415.33,346.46,1415.22,345.54,1413.71Z" transform="translate(209.53 -982.8)"/><path class="cls-8" d="M735.47,1393.71c-.8-1.85-.8-1.85-4.69-.44,1.39-4.15,2.27-8.26-1.39-11.37-2.9-2.47-3.77-6.52-8.47-7.79-9.89-2.65-19.36-6.81-29.19-9.74-5.18-1.54-10.77-1-16.21-2.21-24.89-5.72-50.25-5.86-75.69-6.76-31.91-1.12-63.85-2.65-95.68-1.17-20.09.93-40.15,1.27-60.23,1.61-3.15.05-5.7,1.75-8.51,2.7-7.19,2.42-14.7,2.62-22.13,3.22-6.27.5-12.31,2.84-18.72,2.27a2.32,2.32,0,0,0-1.83.65c-3.58,5.23-9,4-14.05,4.15a2.75,2.75,0,0,0-1,.05c-11.84,5.08-24.59,8.78-31.92,20.76a6.86,6.86,0,0,0-1.08,3.27c-.05,3.23-2.06,3.92-4.62,5.36-9,5.06-18.76,9.31-25.28,17.87-3,3.89-7.83,4.64-11.34,7.56.8-7,3.37-13.5,5.88-20,5.27-3.52,10.23-6.94,12-13.89,1.42-5.58,5.21-10,11.45-11.4,4.23-.92,6.77-3.53,7.24-7.84s2.86-6.42,6.86-7.47c7.4-1.93,13.77-6.62,21.42-8,3.76-.68,7.45-1.79,11.32-1.75,6.61.07,12.46-3.42,19-4,2.48-.22,4.9-.85,7.42-.37,1.82.35,3.82.56,5.41-.35,4.45-2.57,9.28-2.3,14.09-2.28a47.78,47.78,0,0,0,13.66-2.1c7.2-2.06,14.88-1.18,22.34-.47,6.34.59,12.6,1.14,18.79-.89a10.12,10.12,0,0,1,3.46-.46c15.45.38,30.88-2.55,46.37-.21,7.74,1.17,15.56-1.72,23.38.06a38.05,38.05,0,0,0,16.7.35c4.63-1,9.5.29,14.31.9,9.36,1.19,18.82,2.45,28.33,1.47,1.66-.16,3.35-.72,5-.25,13,3.74,26.61,3.87,39.9,5.73,10.48,1.46,21,3.53,31.62,4,6.86.28,13.28,3,19.89,4.62,11.3,2.79,22,7.63,33.38,10.24a15.2,15.2,0,0,1,11.37,9.56c1.3,3.41,5.13,5,7.34,7.91,3.12,7.78,8.09,14.76,10,23.07-2.65,3.34-5,3.64-7.26.34-1.76-2.58-3.21-3.3-6-1.59-2.61,1.6-3.81.25-4.11-2.55-.32-3.09.15-6.31-1.32-9.23a10.12,10.12,0,0,0-.11-4.92c-.53-1.58.94-4.17-1.61-4.63-2.18-.39-5.06-.09-6.47,1.47C741.91,1391.54,738.66,1392.45,735.47,1393.71Z" transform="translate(209.53 -982.8)"/><path class="cls-9" d="M761.29,1386.78a42.33,42.33,0,0,1-8.57-2.46c-1.32-.5-.81-1.15-.83-1.81-.22-6.54-4.81-9.83-10.08-10.8-11.2-2.06-21.31-7.4-32.31-9.81-8.71-1.91-17.2-4.46-26.22-5.53-10-1.18-20.11-2-30-4a148.52,148.52,0,0,0-19.26-2.47c-4.82-.33-9.61-.11-14.15-2.22-2.9-1.35-5.91.12-8.86,0-10.43-.32-20.89,0-31.17-2.55-3-.73-6.55-1-9.39-.12-5.5,1.79-10.52,1.49-16,0a33.77,33.77,0,0,0-13.83-.43c-6.93,1-13.93-.66-20.89-.69-11.64,0-23.54-.86-34.83,1.29-13.26,2.52-26.34-1.13-39.16.94-9.32,1.51-19.21.69-27.71,3.44-7.9,2.55-15.71.28-23.14,3.11-10.31,3.91-21.8,2.51-32,6.54-6,2.35-11.71,5.36-17.89,7.34-1.94.62-2.18,2.7-2.42,4.59-.76,6.21-2.84,8.6-8.72,9.69-6.35,1.19-9.47,5.76-10.54,11.28-.78,4-2.24,6.73-5.68,8.69a9.74,9.74,0,0,0-3.29,3c-1.86,2.91-3.36,1.81-5-.12a38.48,38.48,0,0,1,4.17-10.92,1.51,1.51,0,0,0,.75-2c4.88-13.64,12.64-25.75,20.16-38,1.82-1.31,3.24-.75,5.35,0,4.38,1.63,9.07.65,13.7-.21,13.85-2.54,27.5-5.85,41.63-7.46,12.59-1.44,25.43-2.3,37.94-5.17,9.42-2.16,19.24-2,28.81-1.93,12.29,0,24.78.28,36.81-.82,30-2.73,59.91-1.53,89.79-1,17,.33,34.32,0,51.16,2.92,19.49,3.32,39.32,3.79,58.67,7.82,4.79,1,9.93,1.23,14.08,4.54,1.62,1.29,3.76,1.25,5.77,1.24,6,0,11.44,2.41,17.15,3.6.6.12,5.32,4,4.82-1.94-.08-1,1.63.13,2.5.34A147.26,147.26,0,0,1,761.29,1386.78Z" transform="translate(209.53 -982.8)"/><path class="cls-10" d="M627.45,1262.84c2,3.66.52,5.41-3.06,6.94a21.27,21.27,0,0,1-8.6,2.07c-10.48-.06-21-.4-31.45.05-30.54,1.33-61.07,2.54-91.64,1.95-16.05,5.29-32.83.87-48.88,3.47-10.37,1.68-21.53,1-31.16,6.58-.59.34-1.28.64-1.81.07-.69-.74-.33-1.6.18-2.26a9.94,9.94,0,0,1,4.28-3.32c1.27-.47,2.71-.82,1.93-2.74a207.31,207.31,0,0,1,45-19.7c42.3-13,85.11-14.26,128.24-4.89C603.11,1253.81,615.6,1257.41,627.45,1262.84Z" transform="translate(209.53 -982.8)"/><path class="cls-11" d="M382.66,1555.81c-8.64-1.14-16.6,1.68-24.77,3.85a164.08,164.08,0,0,1-22.93,4c-3.58.42-6.63.94-9.58,3.31-2.45,2-4.37,4.9-8.29,5.06-2.34.09-1.88,3.14-2.64,4.87a118.92,118.92,0,0,1-8-22.89c-1.16-4-.5-7.48,3.32-9.85,1.17-.72,1.51-2.17,2.6-2.94,3.91-1.63,8.07-1.39,12.16-1.48,4.45-.1,8.89-.21,13.33-.43,4.81-.24,7.3-2.26,8.87-6.47,3.64-9.72,8.63-18.88,12.06-28.69.61-1.77,1-3.91,3.39-3.45s1.83,2.88,1.91,4.56c.11,2.1-.09,4.22,0,6.34.1,1.77.38,3.2,2.29,3.88a3.5,3.5,0,0,0,4-1.59C376.14,1506,384,1500,389.66,1492c.93-1.32,2-2.53,2.95-3.82s2.36-2.62,4.22-1.46,1.83,3,1,4.84c-3.6,8.27-5.31,17.1-7.81,25.7-3.32,11.45-4.11,23.33-5.68,35.07C384.17,1553.74,384.94,1555.5,382.66,1555.81Z" transform="translate(209.53 -982.8)"/><path class="cls-12" d="M667.49,1517.77a7.09,7.09,0,0,0,4.63,5.92c7.7,3.44,15.17,7.47,23.06,10.38,3,1.11,7,0,10.45-.37,8.53-.9,16.7-3.28,24.85-6,8.73-2.86,16.4-8.1,25.21-10.64a61.27,61.27,0,0,1,19-2.89c.65,0,1.33.37,1.93.24,10.58-2.15,9.5-.39,8.46,8.44-.57,4.77-.83,9.61-2.45,14.21-.13.11-.25.22-.39.32-1.87,1.43-.39,5.47-3.17,5.49-3.88,0-7.74,2.24-11.7.11-3-1.61-6.35-1.79-9.72-1.78-10.16,0-20.33-.33-30.46.11-9.27.41-18.34,3-27.65,3.35a1.72,1.72,0,0,0-1,.29c-7.22,5.81-15.78,4.11-24,4.22-5.17.07-10.32.11-15.38,1.31a3.76,3.76,0,0,1-3.73-.71c-3.17-3-2.89-6.83-3.14-10.69-.59-9-1.41-18,1-26.8,3.8-2,6-.77,6.62,3.4.29,1.86-1.26,4.42,1.75,5.39a7.83,7.83,0,0,0,1-.62C664.3,1519.49,664.62,1516.4,667.49,1517.77Z" transform="translate(209.53 -982.8)"/><path class="cls-13" d="M313.5,1542.78c-2.63,3.57-6.46,6.37-7.09,11.21-4.43-12.27-6.76-25-8.47-37.9-2.26-17-3.12-34.15-1.37-51.31,4.71-1.13,7.72-5,11.69-7.34,8.08-4.76,16.15-9.28,25.35-11.71,3.19-.84,5-5.52,9.4-4.19,6.08,1,6.32,1.67,3.68,7.49-4.44,9.78-10.18,18.9-14.71,28.61s-8.93,19.64-13,29.64c-3.51,8.68-7.85,17-10.3,26.14-1.62,6-1.61,6,3.89,8.22C313.06,1541.82,313.28,1542.34,313.5,1542.78Z" transform="translate(209.53 -982.8)"/><path class="cls-14" d="M781.43,1445.8c-.14,5.56,2.78,10.52,3.09,16,.17,3.07.78,4.25-3.82,4.59-9,.68-17.26,4.95-24.71,10.06-9.74,6.69-19.14,13.87-28.71,20.79-1.15.83-2,2.26-4.62,2.06l23-58.52c4.37-5,7.5-5.23,14.28-3,6.33,2.13,13,3.21,18.24,7.86C779,1446.41,780.34,1444.89,781.43,1445.8Z" transform="translate(209.53 -982.8)"/><path class="cls-15" d="M759.45,1509.78c-13.05,5.8-25.93,12-39.21,17.25-11.84,4.63-24,5-35.65-1.38-3.05-1.68-6.31-3-9.47-4.47-2.16-1-3.71-2.66-3.17-5s2.93-2.43,4.93-2.13c3.8.55,7.58-.42,11.44.24,3.19.55,5.31-1.37,5.82-4.76.74-4.9,1.54-9.8,2.32-14.69,6.88,1,13.75,2.27,20.75,1.11a2.91,2.91,0,0,1,2.24.88c-.22,2.86-1.37,5.46-2.28,8.12-.43,1.27-2.3,2.74-.47,3.88,1.42.9,2.66-.77,3.85-1.63,3-2.13,5.92-4.26,8.88-6.38a7,7,0,0,1,6.5.1,42.26,42.26,0,0,0,17.32,3.63C756.33,1504.55,760.43,1504.47,759.45,1509.78Z" transform="translate(209.53 -982.8)"/><path class="cls-6" d="M768.44,1585.63a10.81,10.81,0,0,1,.24-7.24c1.09-3.23,1.33-6.7-3.42-7.74-3.11-.68-4-3.32-4.52-6s-1.58-3.87-4.41-3.19c-1.46.35-3.84.35-3.86-1.18-.09-4.88-3.5-3.45-6-3.48-9.31-.1-18.64.21-27.94-.12-7.55-.26-14.79,1.26-22.17,2.28-19.25,2.67-38.55,4.4-58,1-5-.87-10.07-1.72-15.22-1.26-1.86.17-3.72,0-4.75-1.93a4.22,4.22,0,0,1,1.63-2.2,17.93,17.93,0,0,0,8.91-2.49c1.36-1.39,2.61-3.56,4.85-2.73,6.32,2.35,12.53-1,18.79-.08a5.07,5.07,0,0,1,2.81.82c8.45,1.93,16.79,4.94,25.54.88,2.86-1.32,6.26-.81,9.4-.62,6.14.36,11.93-1.17,17.55-3.22a28.69,28.69,0,0,1,10.21-1.83c7.66,0,15.32,0,23,0,4.19,0,8.31.09,12.2,2a7.43,7.43,0,0,0,4.37.86c8.46-1.51,12.51,3.86,15.48,10.22,2.56,5.5.91,11.23-.61,16.79A23.1,23.1,0,0,1,768.44,1585.63Z" transform="translate(209.53 -982.8)"/><path class="cls-12" d="M772.57,1575.12a31.33,31.33,0,0,0-5.94-22.46,4.66,4.66,0,0,0-3.38-1.81c-14.22-2.08-28.42-3.7-42.89-3.28-6.38.18-11.94,2.46-17.79,4a28.1,28.1,0,0,1-7.3,1.17c-6.63,0-13.14-.14-19.62,2.38a14.55,14.55,0,0,1-13-1c-2.62-1.68-6.48.29-8.2-3.22a1.67,1.67,0,0,1,1.37-1.23l.66,0c2-1.71,3.86-2.89,7-2.74,7.62.35,15.28-.17,22.92-.23,3.29,0,6.29-.53,8.6-3.14a5.82,5.82,0,0,1,4-1.83c20.12-2.31,40.27-3.93,60.55-3.07,2.67.12,5.35,0,7.76,1.42,4.51,2.56,7.58,1.18,9.51-3.51,1.72.92.81,3.15,2.22,4.1,1.7-.75-1.56-6.48,3.68-3.66A145.11,145.11,0,0,1,772.57,1575.12Z" transform="translate(209.53 -982.8)"/><path class="cls-4" d="M488.24,1725.82l.94-.17c-.64-4.7,3.72-4.21,6-5.67,2.81-1.77,6.13-1.09,9.28-1.25,4-.19,5,2.63,6.79,5.4,2.08,3.22,7.73,3.85,9.6,3.07,5.3-2.21,10.22-.21,15.23-.53,5.45-.35,11,.33,16.4-.74,2.12-.42,4.45-.59,6.39.43,2.93,1.54,5,.6,7.08-1.51a6.55,6.55,0,0,1,3.41-1.88c13.8-1.88,27.14-6,41-7.65,6.18-.72,12.63-1.09,18.86-3.24,8.3-2.86,17.21-3.93,25.59-6.79a5.29,5.29,0,0,1,3.86.6c-14,8.2-29.2,13.69-44.74,18.08-39.88,11.28-80.11,12-120.58,3.47A53.66,53.66,0,0,1,488.24,1725.82Z" transform="translate(209.53 -982.8)"/><path class="cls-16" d="M699.52,1449c-.1,15-3.66,29.55-6.87,44.1-1,.44-.87,1.63-1.46,2.4-2.48,3.25-4.59,3.22-6.77-.25-3.82-6.08-8.2-6.71-13.65-2s-6.89,5-11.47,2.1c-.22-6.38,3-11.78,5.23-17.38,4.33-10.78,8.7-21.53,11.2-32.93.26-1.19.59-2.52,1.9-3.15,5.25-.74,10.48-1.36,15.86-.58S700,1443.15,699.52,1449Z" transform="translate(209.53 -982.8)"/><path class="cls-17" d="M703.58,1424.77c-.73-11.88-.77-12,10-16.91,10.39-4.79,20.86-9.43,31.3-14.09,4.56-2,5-1.79,4.54,3.45-.89,9.57-1.92,19.13-4.12,28.52-1.93,3.07-4.9,3.73-8.21,3.4-9.38-1-18.79-1.56-28.18-2.26C707,1426.73,704.88,1426.69,703.58,1424.77Z" transform="translate(209.53 -982.8)"/><path class="cls-7" d="M781.43,1445.8c-2.49,1.42-1.37,4.59-3,6.64-5.74-10.56-21.64-16.09-32.81-11.63,3.28-14.51,6.92-29,7-44,4.45,2.11,1.14,6.62,3.4,9.58.67-1.54,1.53-3.37,4-2.06a7,7,0,0,0,2.92.4c5.41.14,5.41.12,3,5.11h5.36A171.14,171.14,0,0,1,781.43,1445.8Z" transform="translate(209.53 -982.8)"/><path class="cls-18" d="M759.45,1509.78a6,6,0,0,0-5-2.8,48,48,0,0,1-25-6.21c6.29-6.29,14.23-10.38,21.05-16,9.46-1.75,18,3,27.19,3.66a6.48,6.48,0,0,1,4.76,2.3c0,4.29-.07,8.59.16,12.88.14,2.71-.78,4.23-3.55,4C772.38,1507.27,765.92,1508.52,759.45,1509.78Z" transform="translate(209.53 -982.8)"/><path class="cls-19" d="M342.51,1443.74c-2.3.59-4.73.56-5.91,3.54-.76,1.92-3.38,1.78-5.28,2.25-6.43,1.61-12.94,3-17.57,8.41-1.13,1.32-2.8,1.68-4.45,2a3.56,3.56,0,0,0-3.18,2.65c-1.55,5.22-3.83,5.82-8.13,2.44-.33-.26-.94-.17-1.42-.24a75.42,75.42,0,0,1,2-17c1.06-1.63,1.39-3.76,3.53-4.63,2.41-1,4.88-1.82,2.19-5.27-1.12-1.43,1-1.62,2-1.94,4.25-1.42,8.52-2.76,12.77-4.17,1.76-.58,3.73-1.27,4.07-3.28.54-3.24.9-6.32,5.16-6.61.3,0,.91-1.35.73-1.6-4.21-5.8,2.72-3.48,3.86-5.34,2.05,3.62.22,7.19-.27,10.74-.45,3.3-1.46,6.51-1.63,9.9-.26,5,0,5.27,4.85,5.74C338.08,1441.54,341.48,1439.64,342.51,1443.74Z" transform="translate(209.53 -982.8)"/><path class="cls-20" d="M699.52,1449c-.32-3.67-2.48-5.26-6-5.12-3.67.15-7.36-1.69-10.89,2-2.21,2.29-3-1.8-4.38-3.1-2.82-2.76-.79-5.92-.4-8.73,1.61-11.77,3.12-23.5,1.63-35.4a3.37,3.37,0,0,1,.84-2.76c2.87.1,4,1.75,4.13,4.46a11.64,11.64,0,0,0,2,6.5c2.52,1.8,5,1,7.31-.35,3-1.72,5.56-1.57,7.68,1.35v.88c-2.54,1.36-3.13,3.49-2.9,6.25.72,8.89,1.35,17.79,1.8,26.7C700.47,1444.05,700.66,1446.61,699.52,1449Z" transform="translate(209.53 -982.8)"/><path class="cls-12" d="M660.28,1495.6a12.31,12.31,0,0,0,9.55-5.37c3.5-4.75,13.83-3.16,16.29,2.26.58,1.28.26,3.72,2.77,3.35.6-.09,1.2-1,1.56-1.71s-2.18-1.39,0-2c.62-.16,1.47.56,2.21.87-1.87,5.43-.44,11.51-3.34,16.73-6,1.12-12.07.27-18.1.43-1,0-2-.27-2.75.57l-.26.15-.3,0c-2.48,2.82-2.16,6.45-2.76,9.8-.2,1.14.18,2.42-1.68,2.1-2.1-.79-2.93-2.37-3.31-4.53a16,16,0,0,0-5.32-9.78c-.9-2.85.71-5,2.12-7.14,2.72-.58,2.21-2.84,2.41-4.74A2.57,2.57,0,0,1,660.28,1495.6Z" transform="translate(209.53 -982.8)"/><path class="cls-21" d="M719.45,1496.78c-6.77,3.8-13.85,1.64-20.83,1-1.46-.13-2-1.62-2.16-3,2.49-6.45,1-13.69,4-20,8.65,1.75,17.39,3,26,5Q722.94,1488.29,719.45,1496.78Z" transform="translate(209.53 -982.8)"/><path class="cls-22" d="M741.33,1440.77a32.52,32.52,0,0,1-3.79,10.06c-1.32,1.74-3.19,2-5.14,1.73-8.73-1.19-17.12-4.31-26-4.42a2.56,2.56,0,0,1-2.31-1.6c-.18-3.39-.09-6.78,0-10.17.92-2.14,2.4-2.16,4.65-2.15a71,71,0,0,1,11.8,1.25,70.19,70.19,0,0,0,14.37,1.37C737.9,1436.72,739.6,1438.73,741.33,1440.77Z" transform="translate(209.53 -982.8)"/><path class="cls-23" d="M726.43,1479.78c-1,.49-2.09,1.45-3.08,1.39a116.52,116.52,0,0,1-21.58-3.84c-1.93-.49-1-1.68-1.34-2.58l2-10c4.67-4.54,10-1.47,14.94-1,3.22.29,6.13,2.25,9.29,3.15,2.41.69,2.14,3,2.7,4.84Z" transform="translate(209.53 -982.8)"/><path class="cls-24" d="M704.46,1435.79q0,5.48,0,11c1.51,1.54,3.47.6,5.19,1,8.92,1.92,18,3.29,26.69,6.08-.55,3.63-2.34,6.78-3.92,10-1.72,2.73-4.2,2.16-6.68,1.55a122.29,122.29,0,0,0-19.16-3.23c-2.79-.23-4-1.26-3.68-4,.25-2.45-.5-5,.47-7.37q.06-10,.11-20a1.9,1.9,0,0,1,2.07,1.19C706.21,1433.51,705.57,1434.72,704.46,1435.79Z" transform="translate(209.53 -982.8)"/><path class="cls-25" d="M704.42,1431.83l-.89-1.09c0-2,0-4,.05-6,5.27-1.35,10.51.07,15.76.26,6.08.23,12.14,1,18.2,1.74,2.73.33,5.16-.88,7.77-1l-2.85,11.06a3.42,3.42,0,0,1-2.67,1.08q-15.35-2-30.72-3.66C707.14,1434,706,1432.56,704.42,1431.83Z" transform="translate(209.53 -982.8)"/><path class="cls-26" d="M782.43,1490.77c-11,.08-21.58-2.49-31.95-6,5.26-3.44,9.9-7.86,16-10,5,1.59,10,.87,15.08.85C783.38,1480.62,782.07,1485.74,782.43,1490.77Z" transform="translate(209.53 -982.8)"/><path class="cls-27" d="M703.42,1450.74c.09,2.62-.75,6,.56,7.65,1.16,1.49,4.71,1.13,7.21,1.58l21.28,3.82a26.72,26.72,0,0,1-3.07,8c-8.11-5.67-17.35-7-26.93-7C702.75,1460.1,701.76,1455.33,703.42,1450.74Z" transform="translate(209.53 -982.8)"/><path class="cls-28" d="M704.42,1431.83c7.18.79,14.41,1.34,21.55,2.45,5.49.85,11.4-.88,16.49,2.52-.38,1.32-.75,2.64-1.13,4-8.84-1.4-17.68-2.86-26.54-4.15-3.41-.49-6.88-.57-10.33-.83C704.45,1434.47,704.43,1433.15,704.42,1431.83Z" transform="translate(209.53 -982.8)"/><path class="cls-29" d="M781.54,1475.68c0,3.29-.82,4.94-4.65,3.17-2.12-1-4.78-.73-7.14-1.28-1.43-.34-3.49-.28-3.29-2.74,2.69-1.17,5.35-2.4,8.06-3.5C779.84,1469.15,780.92,1469.84,781.54,1475.68Z" transform="translate(209.53 -982.8)"/><path class="cls-30" d="M736.39,1453.79c-4.4,1.07-8.67-.58-12.69-1.53-5.64-1.34-11.2-3-17-3.67a3,3,0,0,1-2.21-1.85c9.11-1.47,17.36,3.17,26.2,3.71,2.27.13,4.51.84,6.83.38C737.16,1451.82,736.77,1452.8,736.39,1453.79Z" transform="translate(209.53 -982.8)"/><path class="cls-4" d="M664.45,1702.66c-2.47-5.45-2-6.53,3.56-6.36,2.8.08,5.42-1.45,8.23-.57A35.12,35.12,0,0,1,664.45,1702.66Z" transform="translate(209.53 -982.8)"/><path class="cls-16" d="M663.46,1522.78a6.37,6.37,0,0,0,.87-4.71c-.67-3.39.53-5.72,3.57-7.19-.95,2.24,0,4.61-.41,6.89-1.53.91-1.4,2.43-1.62,3.92C665.7,1522.82,665.28,1524.72,663.46,1522.78Z" transform="translate(209.53 -982.8)"/><path class="cls-16" d="M668.46,1510.78c.28-1,.69-2,2-1.74,6.25,1.5,12.59.36,18.88.74C682.45,1511.9,675.41,1510.42,668.46,1510.78Z" transform="translate(209.53 -982.8)"/><path class="cls-4" d="M679.44,1693.61c-.06-5.62,4.37-4.14,7.48-4.73C684.55,1690.65,682.45,1692.85,679.44,1693.61Z" transform="translate(209.53 -982.8)"/><path class="cls-8" d="M314.24,1390.78c1.21-.25,2.62-1.13,3.34.66.19.49-.07,1.67-.34,1.75-1.25.35-2.73,1.57-3.75-.41Z" transform="translate(209.53 -982.8)"/><path class="cls-2" d="M469,1590.76a6.35,6.35,0,0,1-2.47,0c-1.3-.63-3.85,2-4-1.45-.12-2.8.32-5.65,3.69-6.15a39.12,39.12,0,0,1,8.45-.08,3.58,3.58,0,0,1,3.64,3.94c0,2.49-1.54,3.58-3.83,3.69-1.82.1-3.66,0-5.49,0Z" transform="translate(209.53 -982.8)"/><path class="cls-2" d="M512.93,1580.92a32.22,32.22,0,0,1,18.18-.05c0,.44,0,.87,0,1.3H513C513,1581.76,513,1581.34,512.93,1580.92Z" transform="translate(209.53 -982.8)"/><path class="cls-2" d="M556.84,1583.91c-4.57,2.36-8.17,2.44-12.1.25C548.63,1582.41,551.11,1582.32,556.84,1583.91Z" transform="translate(209.53 -982.8)"/><path class="cls-2" d="M604.49,1613.91c-4.8,1-8.1,1.29-12.19-.19C596.42,1611.24,599.75,1611.09,604.49,1613.91Z" transform="translate(209.53 -982.8)"/><path class="cls-31" d="M342.51,1443.74c-3.18-1.4-6.56-.78-9.83-.73-3.59.06-5-1.45-4.35-4.77,1.42-7.78,3-15.54,4.48-23.3,3.24,0,6.5.59,9.72-.23,9.29-.94,18.6-.13,27.89-.43,2.81-.09,5.65.45,8.42-.37,1.16-.06,2.32-.11,3.48-.19,3.12-.23,4.44.28,4.45,4.32,0,16.48-1.57,32.79-3.77,49.14,5.53-9.06,10.66-18.29,14.32-28.19,4.13-11.21,7.7-22.63,9.08-34.59.65-5.64,5.16-2.4,7.78-3.51a108.77,108.77,0,0,0,20.73,0,83.3,83.3,0,0,0,18.79-1c2.9-.5,5.46-.14,4.85,3.91,3.09,1.84,2.19,5,2.38,7.66.39,5.8,1.92,7,7.63,5.65,8.42-2,15.63-6.56,22.75-11.17,5.68-3.68,9.3-2.53,9.84,4.18.39,4.79,2.07,9.39,1.77,14.23-.29,5.85.69,11.62,1.31,17.38.69,6.44-.05,12.89.76,19.29,1,9,.85,18.09,1.11,27.16a27.21,27.21,0,0,0,6.46,16.39c3.77,4.66,6.61,9.92,9.94,14.86,1.38,2,2.07,4.12,1.06,6.53-2.53,3-6.19,3.06-9.59,3.18-8.65.3-17.31.18-26,.06a28.14,28.14,0,0,1-7.83-1.45c-5.12-1.57-6.78-3.56-7.14-9-.29-4.32-1.26-8.57-1.16-12.91-1.75-11.57-.69-23.23-.81-34.86-.11-10.67-2.58-20.76-6.23-30.66a26.92,26.92,0,0,0-2-4c-.57-1-1.09-2.33-2.43-2.22-1.5.14-1.41,1.66-1.64,2.75-1,4.89-1.85,9.83-2.5,14.77-1.32,10-4.78,19.32-8.11,28.76-2.82,8-6.7,15.61-8,24.08-.85,5.44-3.88,10.3-4.26,15.87.39,8.79-2.33,17.44-1.06,26.26.16,1.84-.72,3.34-1.56,4.85-2.34,2.77-5.53,0-8.1,1.25-13.72,1.44-27.36,3.35-40.7,7-1.65-.55-1.43-2.15-1.89-3.37a.34.34,0,0,0,.05-.52c.55-23.46,6.75-45.78,14.25-67.7-1.81-1-2.45.07-2.87.74-6.47,10.22-15.41,18.27-23.47,27.1-1.31,1.44-2.54,2.61-4.69,1.63-1.95-.88-3.46-2.09-3.5-4.39a58.83,58.83,0,0,0-.79-11q-5,11.83-10,23.68c-.71,1.68-1.81,3.28-2.16,5-1.69,8.42-7.06,10.62-15.09,10.7-6.92.06-14-.74-20.86,1.15-10.23.11-9.9,1.19-6.73-9.41,4.82-16.1,12.68-31,19.17-46.49,5.6-13.35,12.88-25.87,19.43-38.74C347.34,1444.27,346.64,1443.15,342.51,1443.74Z" transform="translate(209.53 -982.8)"/><path class="cls-8" d="M378.84,1413.91c-6.9,1.57-13.9.47-20.85.73-5.15.18-10.31,0-15.46.07l3-1Z" transform="translate(209.53 -982.8)"/><path class="cls-31" d="M658.14,1501.62c-.76,2.34-1.85,4.6-1.71,7.15.31,1.18.3,2.27-.86,3a68.83,68.83,0,0,0,.43,35.56c.21.78.3,1.59.44,2.39h0c-6.74.22-13.44,1.73-20.24.59-1.42-.24-3.19-.62-4.36.24-4.77,3.51-10.25,3.89-15.82,4.05-2.89,0-5.29,1.44-7.81,2.64s-3.36.8-3.79-1.83c-1.77-10,.4-19.44,3.44-28.84,2.71-8.4,3.11-17.38,6.18-25.6-5.28,5.34-10.48,10.9-16.17,16-5,4.41-5.79,4.44-12.84.85-4-2-2.73-5.58-2.69-8.78a3.91,3.91,0,0,1,.33-1.42c-3.43,10.4-7.15,20.7-9.21,31.51-.56,2.92-2.93,3.81-5.67,3.94a3.94,3.94,0,0,1-1.59-.33,9.75,9.75,0,0,0-7.21-1.31c-9.2,2-18.75,1.92-27.83,4.64-5-1.12-6.1-2.42-5.9-7.28a27.34,27.34,0,0,1,1.2-6.28c4.5-13.13,10.47-25.67,15.62-38.55a70.24,70.24,0,0,1,8.28-15.31c3.84-2.93,4.51-7.51,6-11.66a37,37,0,0,1,7.12-14c1-1.19,2.13-2.31,2.3-4,.45-5.4-3.8-2.45-5.91-3.34a35.74,35.74,0,0,1-5.93.46c-5.84-.24-8.08-2.75-6.05-8.3,2.84-7.76,4.49-15.85,7.21-23.62,4.25-3.53,9.58-3.5,14.56-3.71,11.46-.47,23-.32,34.44-.07,5.87.13,6.6,1,7.15,7.08.93,10.17,1.49,20.33-.76,30.41.34-3,2-5.43,3-8.13,4.31-11.54,8.69-23,11.54-35.07,1-4.18,3.5-6.25,7.74-6.3,3.67,0,7.33-.19,10.83-1.51,3.91.24,7.91,0,11.63,1.39,5.16,2,9.88-.66,14.8-1.09,2.09-1.09,4.71-.72,6.61-2.35l3.7,1c3.62,6.55,2,13.6,1.46,20.37-.7,8.88-2.31,17.69-3.53,26.52-3.22,16.51-10.79,31.5-16.44,47.16-.67,1.85-1,3.81-1.54,5.71l.05,0C659.33,1497.53,661,1500.4,658.14,1501.62Z" transform="translate(209.53 -982.8)"/><path class="cls-32" d="M528.54,1531.88a25.59,25.59,0,0,1-.68,4.91c-1.27,3.79-.4,6.47,3.45,8,.81-1,1.73-1.56,2.88-.56a1.77,1.77,0,0,1,.42,2.22c-.9,1.81-2.39,2-4.13,1.37-12.54,3.07-25.28,2.44-38,2.18-.83,0-1.84-.26-2.46.12-6.91,4.25-14.79,1.08-21.88,2.86-11.76,2.94-23.78.71-35.49,2.76-3.41.6-4.32-3.68-7.45-3l7.16-2.27c2.27-1.39,2.27-1.39,1-3.3-2.06-9.2-.89-18.26,1.1-27.3a2,2,0,0,0,.53-.8c.69-1.74,0-4.43,2.52-4.92,2.84-.56,3.42,2.11,4.33,4,1.23,2.46,3,3,5.66,2.75,5.73-.6,11.47-1.25,17.09,1.23,3.13,1.37,3.78-1.44,3.81-3.54.06-4.43,2.34-8.63,1.07-13.2a2.72,2.72,0,0,1,1.92-3.57c2.66-.51.95,2.31,2.08,3.07.38,4.29.7,8.59,1.15,12.87.33,3,1,6.22,4.48,7,14.48,3.45,29,3.81,43.53.09,1.54-1.91,3.32-3.47,5.8-1.78,2.12,1.44,1.51,3.38.26,5.14C527.77,1529.39,529.19,1530.66,528.54,1531.88Z" transform="translate(209.53 -982.8)"/><path class="cls-33" d="M530.48,1547.77c1.06-.79,3-.8,2.86-2.64-.09-1-1.28-.52-2-.39,2.58-3.26,6.46-2.7,9.88-3.13,8.76-1.08,17.54-2.7,26.41-.93-3.54,1.44-7.23,0-9.46.48,2.23-.32,5.91.86,9.46-.48,2.73.1,3.38-1.36,3.91-3.93,2.48-12.18,6.12-24,13.1-35,0,3.5,0,7,0,10.49,0,1.68-.11,3.72,2.22,3.7,2.66,0,4.61,4,8,.59,7.45-7.51,15.74-14.18,23.12-22.17-2.28,10.07-4.16,20.25-7,30.17a157.9,157.9,0,0,0-5.47,27.77c-.11,1.14.06,2.36-1.06,3.16-.72-1.1-1.45-2.2-2.17-3.27-2.21.69.12,2.49-1.17,3.42a4.1,4.1,0,0,1-1.13-.68,9.7,9.7,0,0,0-7.08-3.13c-7.26-.43-14.58.85-21.83-1.19-2.63-.75-5,2.23-8,2.19-8.15-.14-16.3-.12-24.45,0C534.71,1552.85,532.7,1550.24,530.48,1547.77Z" transform="translate(209.53 -982.8)"/><path class="cls-12" d="M616,1554.63a65.67,65.67,0,0,1,29-4.81c3.79.16,7.59,0,11.39-.07l-2.05,1.21c-2.63,0-5.25-.14-7.88-.14-.94,0-2.44-.26-2.59.8-.57,4.18-4.63,2.33-5.07,1.8-3.5-4.13-6.38-1.52-9.41.36-3.09.26-5.9,1.76-9,2l-2,1-3.81.87c-.42-1.92,2.08-1,2.09-2.42,0-.13-.16-.27-.28-.37A2.18,2.18,0,0,0,616,1554.63Z" transform="translate(209.53 -982.8)"/><path class="cls-11" d="M382.61,1556.33l1.89,3.37c.46.47.91,1,1.39,1.41.76.73,2.61.47,2.34,2.07-.18,1.07-1.44,1.27-2.44,1.31a2.34,2.34,0,0,1-2.72-2.24C382.87,1560.28,382.76,1558.3,382.61,1556.33Z" transform="translate(209.53 -982.8)"/><path class="cls-34" d="M643.46,1399.81c-3.34,1.45-6.87,1.12-10.34,1s-4.81,1.26-5.7,4.68c-4.16,15.94-9.21,31.6-16.73,46.35a14,14,0,0,1-2.9,3.91c.75-9.15,2.31-18.12,1.66-27.23q-.47-6.45-.6-12.91c0-2-.93-2.75-2.7-2.76-15.47-.1-30.95-.73-46.39.83a12.55,12.55,0,0,0-3.21,1.27c-1.42-.48-2.58-2.74-4.38-.22-.75,1-2.44.3-3.76.07-4.94-.87-9.89-1-14.72.64a15.89,15.89,0,0,1-7.37.74c-7.3-.94-14,1.87-20.93,3-3,.51-2.13,4.6-5.08,4.9-1.66-4.8-.26-9.87-1.42-14.78-.95-4-2.12-4.07-5.28-2-9.55,6.36-19.36,12.19-31.15,13.55-3.22.37-4.61-.27-4.35-3.75.33-4.46.31-8.94.44-13.42,1.41-3.22,3.65-3.84,7.28-4.36,9.12-1.3,18.13.28,27.12.29,7.53,0,14-4,21.57-3.11a93.5,93.5,0,0,0,22.43.06c34.5-4.08,69.1-.83,103.64-1.76,6.42-.18,13,.18,18.86,3.65-3.29,1.55-6.77.4-10.15.76C647.36,1399.51,645.34,1398.81,643.46,1399.81Z" transform="translate(209.53 -982.8)"/><path class="cls-34" d="M701.45,1407.8c-2-.12-3.87-.51-5.76.7-3.51,2.25-6.61,1.33-9.23-1.7,1.52-.12,3-.54,3.69-2,1.54-3.16,4.27-3.24,7.12-2.79C700.52,1402.5,701.15,1405.08,701.45,1407.8Z" transform="translate(209.53 -982.8)"/><path class="cls-5" d="M643.46,1399.81c5.19-2.16,10.7-.36,16-1.26l3-.74c3-.52,6.1-1.43,9.14,0-7.28,1.9-14.74,1.63-22.17,1.8Z" transform="translate(209.53 -982.8)"/><path class="cls-34" d="M671.6,1397.86l-9.14,0c4.67-1.22,9.19-3.21,14.17-2.94C676.12,1397.82,673.37,1397,671.6,1397.86Z" transform="translate(209.53 -982.8)"/><path class="cls-5" d="M434.91,1400.91a52.42,52.42,0,0,1-20.73,0Z" transform="translate(209.53 -982.8)"/><path class="cls-16" d="M655.57,1511.81a3.43,3.43,0,0,1,.86-3c4.81,3.43,6.36,8.5,7,14-2,1.46-4,2.34-6.28.35s-.91-3.62.18-5.26C659.24,1515.05,656.51,1513.72,655.57,1511.81Z" transform="translate(209.53 -982.8)"/><path class="cls-6" d="M620.47,1555.77c2.66-2.17,5.57-3.23,9-2C626.77,1555.85,623.84,1556.81,620.47,1555.77Z" transform="translate(209.53 -982.8)"/><path class="cls-16" d="M658.14,1501.62l2.19-6c-.06,2.17,5.63,2.89,1,6.68C658.57,1504.54,659.05,1502.26,658.14,1501.62Z" transform="translate(209.53 -982.8)"/><path class="cls-16" d="M679.31,1505c-3.88-.33-6.54.22-9.27-2.14C673.64,1501.19,676.08,1501.87,679.31,1505Z" transform="translate(209.53 -982.8)"/><path class="cls-35" d="M446.46,1466.77c-1.49,7.4-4.67,14.25-7.69,21-4.69,10.49-5.54,21.77-8.41,32.61-2.12,8-2.23,16.13-1.66,24.25.24,3.49-1.26,4.67-4.12,4.71-11.67.14-23.08,2.34-34.55,4.08-2.78.43-3.7-.33-3.32-3,1.61-11.6,2.28-23.28,5.55-34.71,2.92-10.18,6.21-20.21,9.54-30.24a106.92,106.92,0,0,1,7.7-17.66c11.72-.22,23.37-1.92,35.12-1.7A4.24,4.24,0,0,1,446.46,1466.77Z" transform="translate(209.53 -982.8)"/><path class="cls-36" d="M500.31,1424.15c.08-1.5.16-3,.25-4.48.16-2.76,1-4.55,4.34-3.39a4.74,4.74,0,0,0,3.39.08c6.2-3.45,13-2,19.5-2.68,7.7-.84,15.26-3.21,23.1-1.11,1.31.35,1.94-1,2.8-1.78,1.43-1.26,2.68-3.11,5.64-1.8-2.31,1.52-4.15,3.17-2.78,6a81.06,81.06,0,0,1-6,22.4c-2.33,5.72-1.58,6.61,4.52,6.5,2.14,0,4.29,0,6.44,0,1,.94,1.81,2,1.22,3.47-.18.45-.58,1-.57,1.32.2,8.39-5.77,10.41-12.21,12-2.12.54-4.09,1.47-5,3.71-1.81,4.46-5.54,4.71-9.51,4.26a10.9,10.9,0,0,1-3.77-1.21c-6.92-3.72-13.88-.87-20.8-.2-3.93.38-6.11-.42-5.78-5.06.16-2.32-1.17.57-1.76-.09Q501.82,1443.16,500.31,1424.15Z" transform="translate(209.53 -982.8)"/><path class="cls-37" d="M503.3,1462.16c.36-2.72-.1-5.64,2-8.52,1.87,2.74,1,5.42,1.15,7.89s.52,3.52,3.48,3.24c3.31-.31,6.58-.2,9.6-1.94,2-1.17,4.07-.76,6.21.07a90,90,0,0,0,9.89,3.25c3.2.84,6.08.39,6.82-3.59.43-2.28,1.66-3.35,3.93-3.79,2.59-.51,5.08-1.48,7.65-2.09,3.41-.82,6-2.16,5.16-6.38-.48-2.53,2.52-3.9,2.28-6.39.82-.07,1.65-.18,2.47-.2,6.62-.11,6.78.17,3.54,6.09-1.84.64-1.13,2.65-2,3.79q-3.56,7.11-7.09,14.22c-2.49,3.67-5.44,7.11-5.91,11.8-8.28,15.65-15.19,31.93-22,48.25-.57,1.37-1.28,2.68-1.92,4-.71-.88-2-1.85-1.51-2.89,3.07-6.34-2.19-3.65-4.44-4.21a98,98,0,0,0-11.21-17.47,33.41,33.41,0,0,1-8.09-22.34C503.33,1477.37,503.3,1469.76,503.3,1462.16Z" transform="translate(209.53 -982.8)"/><path class="cls-14" d="M473.43,1504.77c-1.38-1.8-2.41-1.53-1.65.66,1.68,4.84-.67,9.41-.47,14.14.1,2.36-1.42,4.38-2.64,6.34-1,1.62-3,2.5-4.15.93-5.19-6.82-11.88-3.74-18.21-3.14a12.12,12.12,0,0,0-1.91.54c-3,.81-4.88.15-4.69-3.49.1-1.85-.76-3.45-2.29-5.13.59,2.83-1.1,3.6-3,4.18a161.8,161.8,0,0,1,8.37-31.53c5.2-13.36,10.4-27,11.84-41.54.66-6.71,2-13.36,3.15-20.61,6.13,4.16,8.35,10.36,10.56,16.31a77.73,77.73,0,0,1,5,26.86Q473.38,1487,473.43,1504.77Z" transform="translate(209.53 -982.8)"/><path class="cls-15" d="M363.48,1479.78c-2.61,14.3-7.56,27.83-13.68,41-1.68,3.6-3.31,7.25-4.74,11-1.59,4.12-4.57,5.9-8.82,6-7.8.23-15.63-.47-23.39,1-3.78.73-3.33-2.12-2.68-4.06,1.84-5.49,3.91-10.92,6.15-16.26,5.49-13.15,11.12-26.25,16.75-39.34.23-.55.94-.9,1.42-1.34,5.15,2.64,10.37.51,15.54.13a40.42,40.42,0,0,0,6.35-1C359.46,1476.2,361.89,1476.9,363.48,1479.78Z" transform="translate(209.53 -982.8)"/><path class="cls-38" d="M418.49,1446.79c-1.33-1.21-2.65-.81-4,0-3.52,4-8.26,4.4-13.1,4.12-2.51-.15-4.11-1.32-3-4.22q3.56-10,7.1-19.92c2.48-2.38,5.57-2.23,8.72-2.42,9.33-.53,18.69.67,28-.9,3.75-.63,8-1,11.25,2.33a75.61,75.61,0,0,1-2.05,17c-.63,1.48-.91,3.23-3.11,3.29-9.51.27-19,.56-28.48,1.72A8.37,8.37,0,0,1,418.49,1446.79Z" transform="translate(209.53 -982.8)"/><path class="cls-39" d="M404.48,1466.78c-.48,3-2.73,4.81-4.37,7.08-4.44,6.15-8.17,12.78-13.13,18.6-5.65,6.65-12.33,12.36-17.58,19.39-1.8,2.41-3.24,1.56-3.74-1.34-1-5.52.39-10.92.95-16.31.82-7.86.67-15.93,3.87-23.42,2.25-3.67,5-3,8-1-.5,3.11-1,6.21-1.5,9.32-.15,1-.18,2.09.85,2.64,1.39.75,2.22-.3,2.8-1.29,1.58-2.72,3.12-5.47,4.5-8.29.76-1.55,1.51-3,3.34-3.37C393.5,1465.67,398.79,1464.64,404.48,1466.78Z" transform="translate(209.53 -982.8)"/><path class="cls-15" d="M500.49,1494.77c2.36,8.71,8.68,15.09,13.3,22.46,2.71,4.33,2.35,5.85-2.82,6.26a103.89,103.89,0,0,1-27.27-1.16c-3.29-.61-4.95-2.5-5.21-5.7-.38-4.62-.67-9.24-1-13.86,1.75-7.24,2-7.51,9.66-7.34A123.74,123.74,0,0,0,500.49,1494.77Z" transform="translate(209.53 -982.8)"/><path class="cls-40" d="M500.49,1494.77a3.18,3.18,0,0,1-3.41,2.94c-3.3.1-6.64.55-9.9.2-4.46-.49-7.89.36-9.69,4.86-1.57-12.65.43-25.39-1-38,.71-4,3.21-4.91,6.86-4.23,5,.94,10.16,1,15.14,2.26,1.8,4.14.69,8.5.94,12.75C499.83,1481.93,498.7,1488.43,500.49,1494.77Z" transform="translate(209.53 -982.8)"/><path class="cls-41" d="M446.46,1466.77c-2.17,2.43-4.65,2.93-8,2.46a42.57,42.57,0,0,0-17.7.81c-3.9,1.09-8.21,1.87-11.28-2.25,2.17-5.08,3.74-10.44,6.92-15.06a27,27,0,0,0,12.74.14c5.51-1.24,11.2-.25,16.8-.67,1.78-.13,2.46,1.44,3.43,2.52Q447.92,1460.75,446.46,1466.77Z" transform="translate(209.53 -982.8)"/><path class="cls-38" d="M380.41,1417.73c2.48-1.16,3,.42,3,2.31,0,9.29-.16,18.58-2,27.75a1.2,1.2,0,0,1-1.3.22c-3-9.75-11.09-6.6-17.58-6.54-4,0-8,1.16-12,.22-3.69-2.67-8-1.83-12.07-2-6.47-.22-7-.86-5-7a8.87,8.87,0,0,1,7.41-3.76c11.7-.38,23.3-2.5,35-2.14,1.64,0,3.44.24,3.92-2C380.08,1422.43,380.26,1420.08,380.41,1417.73Z" transform="translate(209.53 -982.8)"/><path class="cls-42" d="M407.35,1420.6q1-5.05,2-10.11c6.54,2.88,13,.38,19.42-.51a103.48,103.48,0,0,1,20.29-.32c2.19.12,4.36.4,5,3.13.09,12.55.53,10.58-10.82,11.15-10.52.52-21-.23-31.54.6C409.4,1424.72,406.33,1424.53,407.35,1420.6Z" transform="translate(209.53 -982.8)"/><path class="cls-43" d="M363.48,1479.78c-6.78-1.48-13.25,1.2-19.9,1.5-2.13.1-4.26.32-6.37.56-3.59.4-4-1.23-2.72-4.06,1.56-3.38,2.76-7,5-10,9.28-1.52,18.47-3.84,28-3C366.84,1470,363.53,1474.44,363.48,1479.78Z" transform="translate(209.53 -982.8)"/><path class="cls-44" d="M380.41,1417.73c3.1,1.64,1.71,4.54,2,7-1.47,1.83-3.3,1.79-5.56,1.84-12,.26-23.91,1.67-35.87,2.42-5.47.35-6.18-.63-5.63-6.47,0-3.48,2.33-3.65,5-3.87C353.7,1417.51,367.07,1418.32,380.41,1417.73Z" transform="translate(209.53 -982.8)"/><path class="cls-45" d="M453.47,1411.79a3,3,0,0,1-2.74.65c-10.13-1-20.21-1.33-30.08,2-3.08,1-6.28-.18-9.42-.39-2-.13-1.57-2.2-1.91-3.57-.32-4.85,1.79-5.92,6.53-5.37,10.37,1.21,20.81,0,31.17-.82,7.46-.58,7.43-1,7.35,6.47A1.54,1.54,0,0,1,453.47,1411.79Z" transform="translate(209.53 -982.8)"/><path class="cls-46" d="M350.54,1441.69c.47-1.56,1.24-2.48,3.15-2.48,7.71,0,15.46.28,23.12-.43,4.4-.41,4.89,1.25,4.44,4.61-.2,1.48-.51,2.93-.77,4.4-2.07,2.81-5.63,3-8.22,2.89-6.47-.19-12.62,1.16-18.89,2.11-1.88.28-4.48,1.37-5-2.07C348.75,1447.62,352.27,1445.28,350.54,1441.69Z" transform="translate(209.53 -982.8)"/><path class="cls-47" d="M372.45,1462.8c-.37-2.31.43-6.16-4-3-.93,2.94-2.52,4.56-6,4.69a91.62,91.62,0,0,0-15.15,2c-2.73.56-5.56.47-4.88-3.75a26.81,26.81,0,0,1,4-8,37.67,37.67,0,0,0,11.6-2.07c7.53-2.81,15.78-1.32,23.38-3.8.42,4.8-1.37,9.29-2,13.94C377.11,1466.19,374.79,1465.64,372.45,1462.8Z" transform="translate(209.53 -982.8)"/><path class="cls-48" d="M495.57,1422.69c1.63,5.24,1.78,10.67,2,16.08-2.43,2-5.12.45-7.63.41-6.23-.11-12.48.82-18.7-.26l-5.7-11.13c4.92-3.22,10.59-3.12,15.84-2.2,4.67.81,8.27-.33,12-2.56A6.87,6.87,0,0,1,495.57,1422.69Z" transform="translate(209.53 -982.8)"/><path class="cls-49" d="M498.52,1462.76c-1,2-2.78,1.91-4.68,1.63-3.89-.58-7.81-.94-11.68-1.59-2.33-.39-4.22-.08-5.64,1.93q-.56-5.88-1.13-11.75a2.79,2.79,0,0,1,2-2.54c6.19-1.38,12.54-1.77,18.81-2.64.65-.09,1.52.51,2.21,1Z" transform="translate(209.53 -982.8)"/><path class="cls-29" d="M449.39,1454.72c-9.71-.67-19.34.47-28.89,1.82-4,.56-4.12-1-4.08-3.81l2.07-5.94,1,0a3.68,3.68,0,0,0,4,1.13c7-2,14.34-1.24,21.46-2.33,2.07-.32,4.35-.17,5.57,2.17Z" transform="translate(209.53 -982.8)"/><path class="cls-26" d="M404.48,1466.78a33.38,33.38,0,0,1-16,2c.15-6.3,4.15-10.9,7-16,3.31-.25,6.63-.3,9.92-.72,2.47-.32,4.24.36,5.15,2.77A47.55,47.55,0,0,1,404.48,1466.78Z" transform="translate(209.53 -982.8)"/><path class="cls-50" d="M335.33,1422.49c-.11,3.37,1.2,4.48,4.81,4.2,14.06-1.1,28.12-2.33,42.25-2,.5,3.3-.88,4.37-4.18,4.17-12.11-.72-24,2.05-36.08,2.27-2.91.06-5.8,1-8.7,1.55A26.8,26.8,0,0,1,335.33,1422.49Z" transform="translate(209.53 -982.8)"/><path class="cls-51" d="M471.22,1438.92a8.59,8.59,0,0,1,6.37-2.14c5.27,0,10.55.07,15.81-.1a4.52,4.52,0,0,1,4.15,2.09l0,0c1.13,7.6.43,9.15-6.85,9.74-6.55.53-13.54.86-18.09-5.69C472.14,1441.51,471.68,1440.21,471.22,1438.92Z" transform="translate(209.53 -982.8)"/><path class="cls-52" d="M381.4,1448.81c-.86,2.38-2.1,3.07-5,3.23a74.16,74.16,0,0,0-20.42,3.77c-2.95,1-6.9,3.48-9.54-1.13.66-1.32,1.32-2.64,2-4l28.67-2.81c1.13-.11,2.28-.08,3.42-.12h.95Z" transform="translate(209.53 -982.8)"/><path class="cls-53" d="M453.47,1411.79l.9-1a47,47,0,0,1-.9,15c-14.55-1.21-29.05,0-43.56.84-1.48.08-3,.1-4.44.15a15.87,15.87,0,0,1,1.88-6.18c2.73,3.61,6.84,1.7,10.07,1.92,9.58.68,19.24.34,28.87.14,7.14-.16,7.16-.36,7.21-7.38C453.51,1414.11,453.48,1413,453.47,1411.79Z" transform="translate(209.53 -982.8)"/><path class="cls-48" d="M472.59,1442.8c6.08,2,12.07,4.09,18.75,3.42,5-.49,6.66-2.88,6.19-7.47,1.46,3.23.69,6.67.91,10-7.47,2.54-15.33,3-23.05,4.21Q474,1447.9,472.59,1442.8Z" transform="translate(209.53 -982.8)"/><path class="cls-54" d="M342.39,1462.71c.94,1.83,2.49,2,4.26,1.53a54.7,54.7,0,0,1,15.82-1.46,6.7,6.7,0,0,0,6-3l-1,5c-9.18,2.32-18.29,5.44-28,3A12.52,12.52,0,0,1,342.39,1462.71Z" transform="translate(209.53 -982.8)"/><path class="cls-55" d="M410.55,1454.83c-3.73.05-7.47,0-11.2.18-1.84.07-3.22-.37-3.87-2.23a15.82,15.82,0,0,1,2.89-6.08c1.29,2.37,3.4,2.1,5.56,1.75,3.52-.57,7.05-1.1,10.58-1.65A23.46,23.46,0,0,1,410.55,1454.83Z" transform="translate(209.53 -982.8)"/><path class="cls-56" d="M450.47,1447.79a25.28,25.28,0,0,0-13.71.28c-4.55,1.29-9.53,1.1-14.33,1.47-1.82.14-2.68-1-3-2.72,8.92-3.37,18.35-1.33,27.48-2.5,1.67-.21,3.29-.09,4.48-1.51A10.56,10.56,0,0,1,450.47,1447.79Z" transform="translate(209.53 -982.8)"/><path class="cls-57" d="M495.43,1424.75c-.16,1-.3,2.19-1.53,2.23-9.46.35-18.94-.18-28.38.81-2.55-1.79-2.79-3.21.67-4,1.44-.32,2.9-.56,4.35-.84,6.61.53,13.24,0,19.86.45C492.28,1423.54,494,1423.32,495.43,1424.75Z" transform="translate(209.53 -982.8)"/><path class="cls-58" d="M480.31,1419.55c3.12-1.76,6.22-3.56,9.36-5.28,4.79-2.61,4.8-2.59,5,3.19,1.13,4-.95,5.73-4.54,6-2.34.19-4.73,0-7.07.07C479.68,1423.65,479.39,1422.13,480.31,1419.55Z" transform="translate(209.53 -982.8)"/><path class="cls-59" d="M480.31,1419.55c1,4.19,4.45,2.6,6.83,2.55,3.14-.07,6.89-.07,7.51-4.63,1,1.62.83,3.44.92,5.22-.05.69-.09,1.37-.14,2.06-6.55,0-13.09,0-19.64,0-1.93,0-4,.26-5.25-1.82Z" transform="translate(209.53 -982.8)"/><path class="cls-23" d="M372.45,1462.8l7,0-.93,7c-2.38,2.58-5.46-.33-8,1A18,18,0,0,1,372.45,1462.8Z" transform="translate(209.53 -982.8)"/><path class="cls-6" d="M433.32,1547.1c.35-1.21.1-2.65,1.75-4,0,2.73.07,5.09,0,7.43-.05,1-.46,2.07-1.77,1.85-1.06-.18-.91-1.18-.91-2Z" transform="translate(209.53 -982.8)"/><path class="cls-60" d="M662.46,1476.78c-1.17,6.19-4.15,11.73-6.2,17.61-2.33,6.7-3.69,13.67-5.5,20.52-2.26,8.58.42,17.06-.25,25.57-.24,3-.62,5.35-4.33,5.26-11.91-.29-23.45,1.26-34.55,6-2.9,1.23-2.28-1.93-2.08-3.48a107.5,107.5,0,0,1,5.31-23.32c2.22-6,2.45-12.36,4-18.47,2.3-9,4-18.08,7.66-26.68,1.22-2.9,2-6,2.91-9,5.16,4.07,10.95,3.56,17,2.88C652,1473.05,657.74,1472.69,662.46,1476.78Z" transform="translate(209.53 -982.8)"/><path class="cls-61" d="M589.48,1464.8c-1.34,12.8-4.38,24.94-10.37,36.63-4.49,8.75-6.76,18.67-9.67,28.18-1.3,4.23-3.32,6-8,6.41-9,.8-18.19.4-27.05,2.76-2.88.77-3.81-.2-2.75-3,2.14-5.58,4.35-11.15,6.45-16.75,5-13.2,11.76-25.52,18.33-37.94,2-3.68,2.25-8,5.11-11.29,1.05.37,1.57-.31,1.85-1.11,1.14-3.27,2.64-2.67,4.61-.65,2.56,2.64,6,3.42,9.48,4,3.81.7,6.93-.2,8.31-4.4C586.33,1466,586.82,1463.93,589.48,1464.8Z" transform="translate(209.53 -982.8)"/><path class="cls-39" d="M599.45,1469.77c-.57,2.08-1.21,4.14-1.68,6.24-.25,1.13-.35,2.5,1.05,3s2.08-.68,2.57-1.75c1.39-3,2.35-6.26,5.07-8.46,6.37.17,12.78-.1,18.95,2-1.78,10.77-8.84,18.51-15.74,26.06-4.55,5-9.15,10.09-14.75,14.07-1.33.95-2.28,2.43-4.31,1.51a3.69,3.69,0,0,1-2-4.62c2-7.81,0-15.92,1.9-23.69,1.57-6.36.17-13,2-19.3C596,1464.74,597,1468.26,599.45,1469.77Z" transform="translate(209.53 -982.8)"/><path class="cls-19" d="M628.35,1416.57c.38-1.44.87-2.85,1.12-4.31.82-4.88,3.45-6.64,8.56-6.81,11.57-.39,23.17-.94,34.59-3.12,3.56-.68,5.3,0,5.11,4.12-.23,4.77,1,9.58-.31,14.34-3,2.14-6.82,1.9-9.86,1.58-11.45-1.22-22.9-1.17-34.36-1.35C630.91,1421,626.66,1421.59,628.35,1416.57Z" transform="translate(209.53 -982.8)"/><path class="cls-62" d="M599.45,1469.77c-2.59-.39-4,1.69-6,3.22-1.49-2.85,1.08-5.84-1-8.2a3.75,3.75,0,0,0-3,0,19.13,19.13,0,0,0-1,2.26c-2.42,7.87-4.29,9.3-12.3,7.36-3.61-.88-8.11-.59-10.34-5-1.42-2.79-2.64,2.42-4.27.35,3.49-5.88,5.69-12.48,9.83-18a4.67,4.67,0,0,1,5.66-1.86c7.34,2.18,14.87,2.51,22.43,2.71,1.68,0,3.32.27,4,2.17A47.4,47.4,0,0,1,599.45,1469.77Z" transform="translate(209.53 -982.8)"/><path class="cls-63" d="M614.5,1452.81l5.92-13.08c5.19-1.43,10.57-.78,15.59,0,10.19,1.62,20.41,2.45,30.66,3.15,3.11.22,6,.87,5.88,5a21.13,21.13,0,0,1-2,8.91c-1.27,2.32-3.14,2.93-5.8,2.76-7.66-.47-15.13-2.36-22.8-2.76-2.06-.11-5.52.09-4.46-4,.33-1.17,1.49-2.53-.2-3.4-1.24-.63-2.2.44-2.83,1.36-1.09,1.61-2,3.34-3,5-5.13,3.07-10.5.94-15.74.56C614.37,1456.21,613.38,1454.51,614.5,1452.81Z" transform="translate(209.53 -982.8)"/><path class="cls-64" d="M662.46,1476.78c-9-1.13-18.05-.48-27.06,0-4.55.27-6.45-1.58-5.94-6,1.29-4.16,2.13-8.51,5-12,2.57-2.67,5.78-1.56,8.82-1.49a89.81,89.81,0,0,1,18.46,2.56c3.08.73,5.48,2.22,5.62,5.83C665.74,1469.4,665.15,1473.56,662.46,1476.78Z" transform="translate(209.53 -982.8)"/><path class="cls-65" d="M622.42,1434.76q.86-2.51,1.7-5a4.91,4.91,0,0,1,3.93-1.54c14.15.35,28.22,1.78,42.3,3.06a4.63,4.63,0,0,0,3.67-1,2.35,2.35,0,0,1,2.34-.48c.17,4.12-1.1,8-2,12-1.86,2.6-4.71,1.86-6.93,1.39-9.31-2-18.94-1.16-28.2-3.57-2.88-.75-6-.1-9-.11C626.91,1439.45,623.06,1439.64,622.42,1434.76Z" transform="translate(209.53 -982.8)"/><path class="cls-66" d="M573.54,1440.75c-4.55-1.62-9.25-.65-13.88-.82-6.18-.21-6.47-.57-3.69-6.17.37-.74.86-1.42,1.29-2.13,1.77-3,4.5-3.94,7.56-2.65,4.8,2,9.78,1.81,14.77,2,5.78.16,11.44,1.67,17.28,1.38a25,25,0,0,0,7.81-1.41l.84-.11c1.32,2.68,0,5.34-.1,8-.59,1-1.15,2.19-2.45,2.21C593.16,1441.14,583.34,1441.82,573.54,1440.75Z" transform="translate(209.53 -982.8)"/><path class="cls-23" d="M614.5,1452.81c1,2.28,3,1.25,4.74,1.43,4.07.41,8.13,1,12.19,1.51-1.22,5.32-5.06,9.59-6,15-6.6,2-13,2-18.95-2Z" transform="translate(209.53 -982.8)"/><path class="cls-67" d="M622.42,1434.76a13.59,13.59,0,0,0,8,2.25c11.59-.32,23,1.63,34.27,3.82,3.3.64,6.72-1.37,9.72.93a11.72,11.72,0,0,1-1.83,6.13c-1.82-2.57-4.39-3.32-7.4-3.09-14.33,1.06-28.2-3.56-42.46-3.44a2.48,2.48,0,0,1-2.27-1.63Z" transform="translate(209.53 -982.8)"/><path class="cls-68" d="M561.32,1418.51c3.27-3.07,7.52-2,11.25-2.19,8.91-.48,17.86.1,26.78-.27,5.28-.22,6.85,1.93,6,6.71a7,7,0,0,1-5.83,2.12c-5.92-.32-11.79.08-17.71-1.7-4.62-1.39-9.62.91-14.5,1.1C561.78,1424.5,561.41,1424.36,561.32,1418.51Z" transform="translate(209.53 -982.8)"/><path class="cls-69" d="M573.54,1440.75c3.29-1.85,6.82-2.25,10.56-2.14,7.1.22,14.21.14,21.32.19a26.25,26.25,0,0,1-1,10c-.72.68-1.42,1.5-2.5,1.41-9-.77-18.11.7-27.07-1.18a2.45,2.45,0,0,1-1.51-1.17C573.61,1445.47,575,1443.15,573.54,1440.75Z" transform="translate(209.53 -982.8)"/><path class="cls-70" d="M676.36,1429.79l-.93,1a3.65,3.65,0,0,1-3.18,1,365.71,365.71,0,0,0-41.42-3.37c-2,0-4.45.86-5.61-1.87l.43-2.78c4.66-4.42,10.5-3.17,15.87-2.78,8.89.64,17.84-.06,26.74,1.44,2.67.45,6.06-.3,9.11-.62C677.82,1424.57,676.61,1427.12,676.36,1429.79Z" transform="translate(209.53 -982.8)"/><path class="cls-71" d="M573.34,1447.83c10.38-.46,20.79-1.85,31.08.94.05,2.06.15,4.14-.92,6-9,.45-18.06.38-26.81-2.48-1.72-.57-3.47-1.12-5.32-.54Z" transform="translate(209.53 -982.8)"/><path class="cls-72" d="M625.22,1426.55c14.41-.34,28.7,1.47,43,2.37,2.42.16,4.78,1.21,7.17,1.85,0,3.08-1.79,3.21-4.37,3-12.35-1.15-24.57-3.74-37.09-3-3.26.18-6.56-.62-9.85-1C624.49,1428.69,624.85,1427.62,625.22,1426.55Z" transform="translate(209.53 -982.8)"/><path class="cls-68" d="M677.37,1421.81c-3,4-7.5,3-11.25,2.49a155.35,155.35,0,0,0-40.47-.53q1.35-3.6,2.71-7.2c.22,3,2.59,2,4.15,2.11,13.32,1,26.66,1.39,40,1.41a35.91,35.91,0,0,1,4.9.7C677.4,1421.13,677.39,1421.47,677.37,1421.81Z" transform="translate(209.53 -982.8)"/><path class="cls-73" d="M667.38,1465.7c-6.69-5.2-14.82-5-22.62-5.88-3.42-.42-6.86-.69-10.28-1a14.75,14.75,0,0,1,3-6c.53,1,1.49,1.18,2.51,1.3,9.22,1.1,18.43,2.25,27.65,3.3a10.2,10.2,0,0,0,2.9-.57Z" transform="translate(209.53 -982.8)"/><path class="cls-74" d="M561.32,1418.51c.55,3.13,2.24,4.64,5.57,4.11,2.28-.36,4.66-.23,6.89-.76,7.89-1.89,15.58,1.8,23.54.69,2.39-.34,5.48-1.76,8.08.21,0,1.34,0,2.68,0,4-1.31,2.13-3.26,2.7-5.67,2.62-5.56-.19-11.1-.4-16.53-1.87-6.27-1.69-12.62-.08-18.93-.27-3.4-.1-5-1.22-4-4.78C560.55,1421.14,560.25,1419.65,561.32,1418.51Z" transform="translate(209.53 -982.8)"/><path class="cls-75" d="M560.3,1422.49c.27,1.87,1.12,3.07,3.23,3a55.15,55.15,0,0,0,6.44-.13,39,39,0,0,1,16.76.73,36.21,36.21,0,0,0,18.68.7c0,1.33.07,2.66.11,4l-.22,0a3.08,3.08,0,0,1-3.19,1.92c-11.62-.65-23.24-1.42-34.8-2.76-2-.23-4-.3-6-.42-1.12-.06-2.91.31-2.92-1.81Z" transform="translate(209.53 -982.8)"/><path class="cls-76" d="M558.42,1427.75a5.06,5.06,0,0,0,1.84.73c14.63-.36,29,2.69,43.63,2.8a4.56,4.56,0,0,0,1.41-.46,3,3,0,0,1-3.56,3.18c-12.11-1.2-24.45.29-36.36-3.15a11.65,11.65,0,0,0-8.12.78C557.65,1430.34,558,1429.05,558.42,1427.75Z" transform="translate(209.53 -982.8)"/><path class="cls-36" d="M552.46,1479.61c-.16-3-2.41-6.17,1.74-8.64,2.12-1.25-2.72-1.74-1-3.93,1.63-.12,3.23,2.21,5.2.77A50.15,50.15,0,0,1,552.46,1479.61Z" transform="translate(209.53 -982.8)"/><path class="cls-36" d="M565.46,1453.59c.28-2-3.64,1.3-2.35-1.82.78-1.89,1.47-4.55,4.38-2A4.45,4.45,0,0,1,565.46,1453.59Z" transform="translate(209.53 -982.8)"/><path class="cls-6" d="M567.6,1540.68c-4.1,2-8.41.78-12.67,0Z" transform="translate(209.53 -982.8)"/></svg>